<svg width="20" height="20" fill="none" xmlns="http://www.w3.org/2000/svg"><path d="M18.487 2.313a5.116 5.116 0 0 0-7.306 0L1.135 12.5a3.967 3.967 0 0 0 0 5.556 3.824 3.824 0 0 0 4.6.649.636.636 0 0 0 .423-.185L16.203 8.333a2.644 2.644 0 0 0 0-3.703 2.557 2.557 0 0 0-3.652 0l-8.22 8.334a.662.662 0 0 0 0 .926.64.64 0 0 0 .914 0l8.22-8.334a1.278 1.278 0 0 1 1.825 0 1.321 1.321 0 0 1 0 1.852L5.7 17.13a2.558 2.558 0 0 1-3.652 0 2.644 2.644 0 0 1 0-3.704L12.094 3.24a3.837 3.837 0 0 1 5.48 0 3.967 3.967 0 0 1 0 5.557l-9.133 9.26a.662.662 0 0 0 0 .925.64.64 0 0 0 .914 0l9.132-9.26c2.017-2.045 2.017-5.362 0-7.408z" fill="#BBC3CF"/></svg>