<svg width="20" height="20" fill="none" xmlns="http://www.w3.org/2000/svg"><path d="M3.961 7.732a3.87 3.87 0 0 0 1.177-.184l2.26 2.26 2.476-2.476-2.26-2.262a3.848 3.848 0 0 0-.937-3.884A3.803 3.803 0 0 0 3.971.066c-.57 0-1.143.129-1.656.374a.263.263 0 0 0-.073.424L4.62 3.243a.921.921 0 0 1 0 1.31.946.946 0 0 1-1.31 0L.93 2.175a.263.263 0 0 0-.424.073 3.84 3.84 0 0 0 .747 4.362 3.804 3.804 0 0 0 2.708 1.122zm12.079 4.4c-.403 0-.798.063-1.179.185l-2.5-2.5-2.477 2.476 2.5 2.501a3.851 3.851 0 0 0 .938 3.884 3.804 3.804 0 0 0 2.706 1.121c.571 0 1.144-.13 1.657-.374a.263.263 0 0 0 .073-.425l-2.378-2.379a.92.92 0 0 1 0-1.31c.35-.35.96-.35 1.31 0l2.379 2.378a.264.264 0 0 0 .424-.072 3.84 3.84 0 0 0-.746-4.363 3.803 3.803 0 0 0-2.707-1.122z" fill="#fff" fill-opacity=".5"/><path d="M15.022 6.493s.414.362.755.193c.386-.194 1.472.877 1.819 1.127l.008.003-.19.19a.637.637 0 0 0 .9.9l1.5-1.499a.637.637 0 0 0-.9-.9l-.25.249c-.207-.285-.551-.771-.508-.932.183-.705-1.254-2.37-1.254-2.37-3.57-3.57-5.954-3.488-7.088-3.098-.455.156-.371.256.102.339 3.441.6 3.868 2.63 3.285 3.413-.225.302.103.667.103.667l.123.122-5.811 5.81c.079.048.155.102.223.17l.977.976c.067.066.12.143.168.221l5.81-5.81.228.229zm-7.574 4.774a.605.605 0 0 0-.809-.03l-6.457 5.79a.508.508 0 0 0-.029.752l1.759 1.758a.508.508 0 0 0 .752-.026l5.79-6.46a.604.604 0 0 0-.029-.807l-.977-.977z" fill="#fff" fill-opacity=".5"/></svg>