<svg width="20" height="21" fill="none" xmlns="http://www.w3.org/2000/svg"><path d="M14.98 4.283c.777 0 1.408-.626 1.408-1.404V1.407a1.407 1.407 0 1 0-2.815 0V2.88c0 .778.628 1.404 1.406 1.404z" fill="#8089A6"/><path d="M19.98 2.435h-2.833v.717a2.144 2.144 0 0 1-4.285 0v-.717H7.144v.717c0 1.18-.96 2.143-2.143 2.143A2.145 2.145 0 0 1 2.86 3.151v-.716L0 2.4v17.893h18.574L20 20.288l-.02-17.853zm-1.406 16.432H1.429V7.437h17.145v11.43z" fill="#8089A6"/><path d="M4.978 4.283c.779 0 1.408-.626 1.408-1.404V1.407a1.405 1.405 0 1 0-2.813 0V2.88c0 .778.629 1.404 1.405 1.404zM9.4 8.97H7.15v1.988H9.4V8.97zm-3.522 0h-2.25v1.988h2.25V8.97zm7.165 0H10.79v1.988h2.253V8.97zm3.373 0h-2.25v1.988h2.25V8.97zM9.4 12.27H7.15v1.986H9.4V12.27zm3.643 0H10.79v1.986h2.253V12.27zm3.373 0h-2.25v1.986h2.25V12.27zM9.4 15.636H7.15v1.985H9.4v-1.985zM5.822 12.27h-2.25v1.986h2.25V12.27zm0 3.366h-2.25v1.985h2.25v-1.985zm7.221 0H10.79v1.985h2.253v-1.985zm3.373 0h-2.25v1.985h2.25v-1.985z" fill="#8089A6"/></svg>