<svg width="276" height="72" fill="none" xmlns="http://www.w3.org/2000/svg"><path d="M276 27.22c-.619.345-1.201.824-1.865 1.01-1.811.503-3.662.868-5.489 1.318-1.021.252-1.334.893-1.324 1.982.061 6.446.032 12.893.03 19.34-.002 1.91-.155 2.054-2.111 2.057-1.131.002-2.261-.025-3.391.007-1.058.03-1.601-.387-1.6-1.496.011-9.152.009-18.303.003-27.455-.001-.95.429-1.416 1.393-1.405 1.085.013 2.17 0 3.256 0 2.035.003 2.035.003 2.233 1.603 2.212-.65 4.461-1.346 6.732-1.957.885-.237 1.704-.012 2.133.937v4.059zm-74.1-15.35c.317.49.855.961.906 1.473.13 1.308.034 2.634.046 3.952.008.91-.428 1.412-1.444 1.414-1.668.002-3.336.016-5.004-.01-.909-.015-1.394-.462-1.385-1.335.012-1.362-.073-2.73.042-4.084.041-.487.537-.941.824-1.41h6.015zm-99.068 12.714c.887-.463 1.732-.944 2.61-1.354 2.384-1.11 4.887-1.344 7.438-.832.769.154 1.682.387 2.187.916 1.258 1.32 2.348.905 3.704.202 2.178-1.13 4.588-1.438 7.014-1.37 4.891.136 7.767 2.798 8.184 7.83.274 3.32.224 6.67.259 10.009.039 3.702.017 7.405.004 11.108-.005 1.521-.312 1.817-1.798 1.83-1.114.008-2.229.006-3.344 0-1.631-.008-1.878-.234-1.88-1.872-.011-5.78-.003-11.559-.009-17.339a17.521 17.521 0 0 0-.07-1.62c-.301-3.187-1.228-3.996-4.369-3.824-.267.015-.535.03-.797.078-3.325.595-3.423.807-3.387 4.165.069 6.275.039 12.552.06 18.828.003 1.14-.525 1.633-1.649 1.594-1.202-.04-2.407 0-3.611-.01-1.475-.013-1.799-.323-1.802-1.835-.011-5.644-.003-11.288-.005-16.933-.001-.767-.001-1.536-.037-2.302-.138-2.943-1.663-4.177-4.523-3.493-1.196.286-2.349.84-3.443 1.423-.324.172-.537.854-.539 1.304-.034 6.592-.022 13.185-.025 19.777 0 1.913-.152 2.057-2.081 2.06-1.114.002-2.23-.03-3.343.008-1.154.041-1.582-.505-1.58-1.638.017-9.075.016-18.151.001-27.227-.001-1.093.457-1.568 1.53-1.532 1.024.033 2.05.004 3.076.006 2 .003 2 .003 2.225 2.043zm47.527 22.729c.537-2.114 1.082-4.226 1.609-6.342 1.333-5.35 2.682-10.697 3.97-16.06.275-1.144.762-1.707 1.993-1.626 1.327.088 2.663.01 3.996.023 1.555.013 1.816.359 1.39 1.874-1.674 5.955-3.355 11.908-5.038 17.861-1.304 4.613-2.582 9.235-3.937 13.832-.886 3.009-2.199 5.744-5.491 6.755-3.591 1.102-7.198.817-10.765-.116-.423-.11-.967-.857-.973-1.315-.063-4.395-.445-3.942 3.513-3.77 1.197.053 2.393.19 3.589.193 2.391.008 3.361-.736 4.087-3.04.186-.593.332-1.2.515-1.872-.213-.056-.369-.136-.521-.131-2.22.08-3.638-1.07-4.327-3.092-.751-2.2-1.367-4.449-2.003-6.689a5498.433 5498.433 0 0 1-5.243-18.624c-.466-1.66-.299-1.858 1.445-1.868 1.287-.007 2.579.062 3.862-.02 1.149-.072 1.684.408 1.95 1.513 1.66 6.883 3.353 13.758 5.058 20.63.168.676.494 1.312.747 1.967l.574-.083zM249.6 34.855c-.011-2.487-.556-4.611-2.814-5.9-2.026-1.157-4.126-1.044-6.041.193-2.033 1.316-2.566 3.376-2.561 5.707H249.6zm-11.345 5.058c-.427 4.007 1.982 6.825 5.99 6.868 2.987.03 5.983-.182 8.963-.411 2.37-.182 2.512-.147 2.504 2.134-.012 3.893.272 3.246-3.208 3.786-3.762.583-7.582.983-11.369.242-5.651-1.107-9.145-4.366-9.824-9.934-.451-3.696-.438-7.583.215-11.24 1.079-6.046 6.474-9.592 12.918-9.19 7.369.459 11.625 4.483 12.293 11.685.138 1.498.107 3.013.137 4.52.022 1.088-.461 1.57-1.652 1.56-5.174-.047-10.347-.02-15.52-.02h-1.447zm-62.884-10.339c4.219 0 8.284.005 12.349-.002 3.396-.005 3.219-.255 3.2 3.185-.002.402-.02.806.003 1.207.069 1.162-.496 1.571-1.623 1.561-4.118-.033-8.237-.012-12.355-.012h-1.574v1.575l-.001 13.543c-.001 2.246-.057 2.298-2.366 2.3-1.164 0-2.328-.018-3.492.003-.988.019-1.497-.382-1.495-1.42.018-9.699-.087-19.4.074-29.096.095-5.752 3.541-9.191 9.416-9.381 4.184-.136 8.385.298 12.579.482 1.095.048 1.544.603 1.539 1.723-.02 4.61.21 3.892-3.843 3.928-2.73.025-5.462-.026-8.192.018-2.974.049-3.893.94-4.145 3.884-.043.489-.069.98-.071 1.472-.009 1.604-.003 3.21-.003 5.03zm42.501 3.303c1.55-2.66 3.092-5.14 4.458-7.72.725-1.368 1.579-2.04 3.115-1.847 1.038.129 2.105-.015 3.155.04.528.029 1.049.228 1.573.35-.191.485-.314 1.015-.584 1.446-2.451 3.936-4.899 7.876-7.419 11.765-.577.892-.601 1.5-.004 2.402 2.83 4.276 5.591 8.602 8.353 12.927.246.386.324.886.481 1.333-.475.155-.945.424-1.424.443-1.49.058-2.987-.054-4.472.046-1.124.074-1.79-.41-2.357-1.343-1.637-2.694-3.32-5.357-4.988-8.031-.234-.375-.481-.74-.833-1.278-.896 1.5-1.719 2.876-2.54 4.254-1.058 1.781-2.048 3.613-3.21 5.319-.36.527-1.162.94-1.799 1.007-1.433.148-2.891.067-4.337.033-.359-.009-.974-.133-1.016-.315-.082-.366.055-.873.266-1.21a1108.32 1108.32 0 0 1 8.405-13.218c.517-.799.55-1.344.009-2.164-2.624-3.983-5.184-8.012-7.737-12.045-.239-.377-.279-.892-.411-1.342.44-.131.878-.363 1.321-.376 1.577-.047 3.16.033 4.736-.038.96-.043 1.538.362 2.031 1.17 1.686 2.759 3.415 5.49 5.228 8.392zm-16.134 5.682c0 4.524.006 9.048-.002 13.572-.004 1.648-.272 1.93-1.769 1.94-1.066.007-2.131.007-3.197 0-1.527-.01-1.761-.248-1.763-1.938-.007-8.18-.003-16.359-.003-24.539 0-.914.019-1.828-.003-2.741-.027-1.081.395-1.605 1.447-1.569a45.85 45.85 0 0 0 3.708-.003c1.161-.053 1.602.485 1.594 1.706-.029 4.524-.012 9.048-.012 13.572z" fill-rule="evenodd" clip-rule="evenodd" fill="#3D4954"/><path fill-rule="evenodd" clip-rule="evenodd" d="M47.29 20.69l-31.6 11.747a1.428 1.428 0 0 0-.46.272 1.423 1.423 0 0 0-.47.887 1.433 1.433 0 0 0 .249 1.01c.002 0 0 0 0 0 .191.273.477.478.823.56h.001l.002.001h.002l.003.001 15.45 3.572 17.475-17.72a1.39 1.39 0 0 0-1.475-.33zm1.322.579l-17.476 17.72 3.523 15.664v.004l.002.003c.08.352.283.642.552.835v.001a1.399 1.399 0 0 0 .996.251 1.398 1.398 0 0 0 1.078-.785c.025-.05.047-.104.065-.158l11.585-32.04a1.436 1.436 0 0 0-.325-1.495z" fill="#2A74DB"/><path fill-rule="evenodd" clip-rule="evenodd" d="M54.961 6.406a34.586 34.586 0 0 0-22.9-6.288C23.836.8 16.088 4.439 10.244 10.365-1.728 22.503-3.404 41.522 6.259 55.587a2.891 2.891 0 0 0 2.387 1.263c.573 0 1.152-.172 1.659-.529.323-.229.586-.512.786-.829a2.98 2.98 0 0 0-.063-3.273c-8.051-11.72-6.653-27.57 3.326-37.687 4.87-4.939 11.327-7.972 18.181-8.54a28.816 28.816 0 0 1 19.085 5.236 2.874 2.874 0 0 0 3.212.088 2.92 2.92 0 0 0 .836-.804 2.974 2.974 0 0 0-.707-4.106zm8.574 8.468a2.88 2.88 0 0 0-4.05-.71 2.925 2.925 0 0 0-.793.85 2.981 2.981 0 0 0 .093 3.256c3.9 5.608 5.744 12.486 5.195 19.368a29.686 29.686 0 0 1-8.425 18.459 28.887 28.887 0 0 1-20.599 8.643 28.659 28.659 0 0 1-16.32-5.097c-1-.69-2.274-.662-3.227-.03a2.922 2.922 0 0 0-.811.806c-.904 1.346-.56 3.179.766 4.095a34.385 34.385 0 0 0 19.59 6.117c9.009 0 17.962-3.525 24.71-10.367 5.851-5.933 9.441-13.799 10.108-22.15.66-8.254-1.555-16.508-6.238-23.24z" fill="#2A74DB"/><mask id="a" maskUnits="userSpaceOnUse" x="4" y="3" width="52" height="53"><path fill-rule="evenodd" clip-rule="evenodd" d="M4.223 29.588V3.824h50.913v51.528H4.223V29.588z" fill="#fff"/></mask><g mask="url(#a)"><path fill-rule="evenodd" clip-rule="evenodd" d="M11.332 52.08C3.28 40.36 4.679 24.51 14.657 14.391c4.871-4.939 11.328-7.972 18.182-8.54a28.817 28.817 0 0 1 19.085 5.236 2.873 2.873 0 0 0 3.212.088C49.748 6.59 42.8 3.824 35.215 3.824c-17.117 0-30.993 14.07-30.993 31.425 0 7.647 2.694 14.654 7.172 20.103a2.98 2.98 0 0 0-.063-3.273z" fill="#2A74DB"/></g></svg>