<svg width="18" height="19" fill="none" xmlns="http://www.w3.org/2000/svg"><path d="M9 9.596c2.229 0 4.036-2.148 4.036-4.798C13.036 1.123 11.229 0 9 0 6.771 0 4.964 1.123 4.964 4.798c0 2.65 1.807 4.798 4.036 4.798zm8.912 7.062L15.876 12a1.031 1.031 0 0 0-.46-.497l-3.16-1.671a.201.201 0 0 0-.217.018A4.956 4.956 0 0 1 9 10.9a4.956 4.956 0 0 1-3.039-1.05.201.201 0 0 0-.217-.018l-3.16 1.67a1.031 1.031 0 0 0-.46.498L.088 16.66c-.14.32-.112.688.077.983.189.294.508.47.853.47h15.963c.346 0 .665-.176.854-.47.188-.295.217-.663.077-.984z" fill="#8089A6"/></svg>