<svg width="20" height="22" fill="none" xmlns="http://www.w3.org/2000/svg"><path d="M18.973.978L.549 10.548c-.758.394-.727.971.068 1.283l2.352.92c.794.312 1.997.143 2.672-.38l10.215-7.98c.672-.524.744-.446.16.173L7.94 13.13c-.585.617-.411 1.373.385 1.68l.275.107c.796.305 2.097.818 2.89 1.139l2.608 1.051c.793.32 1.441.585 1.441.59 0 .004.005.019.009.02.004.001.191-.666.415-1.483L19.94 1.75c.224-.819-.21-1.165-.968-.773zM8.126 16.398L6.45 15.59c-.736-.355-1.089.06-.784.926.001 0 1.558 4.418 1.515 4.574-.045.154 1.494-2.622 1.494-2.622.435-.784.188-1.716-.548-2.07z" fill="#0AD69C"/></svg>