<svg width="19" height="20" fill="none" xmlns="http://www.w3.org/2000/svg"><path fill-rule="evenodd" clip-rule="evenodd" d="M16.224 3.445A8.927 8.927 0 0 0 3.49 3.444c-3.511 3.56-3.51 9.352 0 12.912a8.926 8.926 0 0 0 12.734 0c3.51-3.56 3.51-9.352 0-12.911zm-.982 11.914a7.55 7.55 0 0 1-10.77.001c-2.97-3.012-2.969-7.91 0-10.92a7.55 7.55 0 0 1 10.77 0c2.97 3.01 2.969 7.91 0 10.919zM7.55 6.361a1.06 1.06 0 0 0-1.053 1.067A1.06 1.06 0 0 0 7.55 8.496a1.06 1.06 0 0 0 1.052-1.068A1.06 1.06 0 0 0 7.55 6.361zm3.72 1.067c0-.59.471-1.067 1.052-1.067a1.06 1.06 0 0 1 1.053 1.067 1.06 1.06 0 0 1-1.053 1.068 1.06 1.06 0 0 1-1.053-1.068zm-1.404 6.888c1.712 0 3.24-.988 3.892-2.518a.52.52 0 0 0-.266-.678.507.507 0 0 0-.67.27c-.49 1.15-1.65 1.894-2.956 1.894-1.335 0-2.502-.743-2.974-1.894a.508.508 0 0 0-.665-.279.519.519 0 0 0-.275.675c.63 1.537 2.166 2.53 3.914 2.53z" fill="#BBC3CF"/></svg>