<svg width="15" height="16" fill="none" xmlns="http://www.w3.org/2000/svg"><path fill-rule="evenodd" clip-rule="evenodd" d="M10.617 10.499l3.451 3.64a.783.783 0 0 1-.02 1.094.754.754 0 0 1-1.08-.021L9.49 11.545a5.74 5.74 0 0 1-3.354 1.074C2.908 12.62.281 9.956.281 6.683.281 3.409 2.908.746 6.136.746c3.228 0 5.855 2.663 5.855 5.937a5.97 5.97 0 0 1-1.374 3.816zm-.154-3.816c0-2.42-1.94-4.388-4.327-4.388-2.386 0-4.327 1.969-4.327 4.388 0 2.42 1.94 4.387 4.327 4.387 2.386 0 4.327-1.967 4.327-4.387z" fill="#BBC3CF"/></svg>