<svg width="20" height="21" fill="none" xmlns="http://www.w3.org/2000/svg"><path d="M3.179 4.01a1.972 1.972 0 1 0 0-3.945 1.972 1.972 0 0 0 0 3.945zM.978 10.92h.196v3.913c0 .538.44.978.978.978h2.053a.98.98 0 0 0 .978-.978v-.228a2.472 2.472 0 0 1-.293-1.141V8.345a2.44 2.44 0 0 1 1.467-2.233v-.39a.98.98 0 0 0-.978-.979H.978A.98.98 0 0 0 0 5.721v4.222a.97.97 0 0 0 .978.978zm15.86-6.91a1.972 1.972 0 1 0 0-3.945 1.972 1.972 0 0 0 0 3.945zm-3.195 1.696v.39A2.44 2.44 0 0 1 15.11 8.33v5.102c0 .407-.098.798-.293 1.14v.229c0 .538.44.978.978.978h2.054a.98.98 0 0 0 .978-.978v-3.912h.195A.98.98 0 0 0 20 9.911V5.706a.98.98 0 0 0-.978-.978h-4.4a.98.98 0 0 0-.979.978zm-7.27 2.64v5.118c0 .538.44.978.978.978h.375v4.613c0 .538.44.978.978.978h2.624a.98.98 0 0 0 .979-.978v-4.63h.374a.98.98 0 0 0 .978-.977V8.346a.98.98 0 0 0-.978-.978h-5.33a.97.97 0 0 0-.978.978zm3.635-1.793a2.266 2.266 0 1 0 0-4.531 2.266 2.266 0 0 0 0 4.53z" fill="#fff" fill-opacity=".5"/></svg>